<?xml version="1.0" encoding="utf-8"?>
<!-- Generator: Adobe Illustrator 16.0.0, SVG Export Plug-In . SVG Version: 6.00 Build 0)  -->
<!DOCTYPE svg PUBLIC "-//W3C//DTD SVG 1.1//EN" "http://www.w3.org/Graphics/SVG/1.1/DTD/svg11.dtd">
<svg version="1.1" id="Layer_1" xmlns="http://www.w3.org/2000/svg" xmlns:xlink="http://www.w3.org/1999/xlink" x="0px" y="0px"
	 width="360px" height="324px" viewBox="0 90 360 324" enable-background="new 0 90 360 324" xml:space="preserve">
<g>
	<path fill="#FFC849" d="M10.478,240.793c1.755-5.362,5.609-8.908,9.956-12.272c49.314-38.157,98.558-76.405,147.821-114.628
		c8.208-6.369,14.834-6.382,23.026-0.026c16.102,12.495,32.196,24.998,48.297,37.493c1.023,0.794,2.083,1.541,3.696,2.729
		c0-5.894-0.006-11.221,0.002-16.548c0.006-5.582,1.64-7.188,7.326-7.191c9.476-0.006,18.954-0.015,28.43-0.002
		c4.678,0.006,6.563,1.886,6.568,6.64c0.02,15.427,0.073,30.855-0.07,46.283c-0.025,2.691,0.713,4.371,2.879,6.035
		c16.959,13.005,33.76,26.217,50.726,39.214c4.362,3.341,8.2,6.911,9.952,12.273c0,2.205,0,4.409,0,6.615
		c-0.213,0.36-0.492,0.7-0.63,1.089c-4.1,11.442-15.967,15.062-25.557,7.647c-28.133-21.755-56.217-43.578-84.317-65.377
		c-16.877-13.093-33.75-26.191-50.625-39.288c-6.062-4.705-10.288-4.705-16.351,0C126.89,186.171,82.074,220.736,37.532,255.65
		c-10.841,8.498-24.267,2.86-26.62-7.781c-0.039-0.179-0.286-0.309-0.436-0.46C10.478,245.201,10.478,242.996,10.478,240.793z"/>
	<path fill="#FFC849" d="M52.803,328.775c0-19.509,0.054-39.018-0.039-58.526c-0.023-4.814,1.786-8.416,5.559-11.338
		c38.594-29.887,77.152-59.816,115.723-89.73c4.432-3.437,6.93-3.502,11.229-0.17c38.746,30.046,77.477,60.112,116.229,90.151
		c3.57,2.767,5.28,6.267,5.276,10.807c-0.041,39.35-0.021,78.697-0.025,118.046c-0.004,5.123-1.791,6.868-7.007,6.872
		c-27.114,0.006-54.227,0.006-81.342-0.004c-5.161-0.002-6.876-1.743-6.878-6.98c-0.011-26.894-0.001-53.786-0.013-80.68
		c-0.003-6.088-1.524-7.562-7.624-7.559c-16.312,0.002-32.625-0.011-48.937-0.007c-5.15,0.003-6.917,1.775-6.917,6.955
		c-0.006,27.005-0.001,54.008-0.004,81.012c0,5.614-1.653,7.265-7.276,7.265c-26.894,0.002-53.786,0.002-80.68,0
		c-5.646-0.002-7.27-1.616-7.273-7.254C52.798,368.013,52.803,348.393,52.803,328.775z"/>
</g>
</svg>
